<?xml version="1.0" standalone="no"?>
<!DOCTYPE svg PUBLIC "-//W3C//DTD SVG 20010904//EN"
 "http://www.w3.org/TR/2001/REC-SVG-20010904/DTD/svg10.dtd">
<svg version="1.0" xmlns="http://www.w3.org/2000/svg"
 width="512.000000pt" height="512.000000pt" viewBox="0 0 512.000000 512.000000"
 preserveAspectRatio="xMidYMid meet">

<g transform="translate(0.000000,512.000000) scale(0.100000,-0.100000)"
fill="#000000" stroke="none">
<path d="M1385 5109 c-46 -11 -125 -40 -125 -46 0 -2 27 -29 60 -59 104 -97
155 -239 130 -366 -7 -35 -14 -75 -17 -90 -4 -20 0 -28 16 -33 12 -3 48 -31
80 -61 43 -40 67 -72 87 -120 24 -54 32 -65 49 -61 11 3 49 13 85 22 144 39
295 -8 403 -125 35 -38 63 -80 78 -117 29 -76 37 -202 16 -271 -17 -59 -14
-64 58 -100 53 -26 66 -42 111 -137 21 -44 39 -81 40 -83 1 -2 30 7 65 18 82
28 207 24 290 -8 134 -53 242 -201 256 -351 l6 -74 -74 63 c-136 114 -294 190
-468 225 -65 14 -115 16 -220 12 -211 -8 -379 -61 -550 -174 l-95 -63 -173
172 c-95 95 -173 175 -173 178 0 3 20 16 45 29 151 80 255 253 255 423 0 147
-46 263 -140 358 -127 127 -295 177 -471 139 l-51 -11 56 -32 c115 -64 207
-183 241 -311 19 -76 19 -194 0 -270 -18 -69 -66 -159 -86 -163 -8 -1 -207
192 -444 429 -296 298 -442 438 -470 450 -53 25 -92 24 -145 -3 -78 -41 -98
-87 -92 -220 l4 -76 2091 -2099 2092 -2098 70 -3 c106 -5 151 5 192 41 58 51
78 126 52 193 -5 16 -58 76 -116 136 -69 70 -101 109 -92 112 8 2 101 13 207
24 170 18 200 24 257 51 80 37 152 107 191 186 26 55 29 69 29 165 0 97 -2
110 -30 166 l-30 61 48 46 c88 85 134 227 116 356 -34 235 -268 399 -494 346
-130 -30 -122 -30 -129 2 -17 69 -103 175 -169 210 -26 13 -28 18 -22 46 29
134 21 227 -26 323 -35 70 -120 159 -185 192 -95 49 -230 58 -330 22 -32 -11
-59 -20 -60 -20 -1 0 -5 14 -9 30 -10 46 -78 141 -125 175 -87 63 -81 52 -64
125 56 234 -104 473 -341 509 -68 10 -162 0 -219 -24 -21 -9 -39 -15 -41 -13
-1 2 -14 29 -28 60 -34 76 -70 120 -138 168 l-57 40 15 51 c20 69 13 195 -15
269 -77 198 -306 305 -514 240 -34 -11 -66 -20 -70 -20 -3 0 -12 17 -19 38
-26 80 -85 150 -172 205 -24 15 -28 23 -23 45 25 109 28 145 17 203 -41 237
-273 399 -496 348z m2186 -2425 c109 -32 213 -122 265 -232 33 -69 44 -193 24
-280 -12 -55 -12 -57 11 -71 55 -34 146 -137 164 -186 10 -28 21 -53 25 -58 3
-4 33 2 65 13 119 41 266 21 372 -51 208 -142 235 -456 55 -633 l-48 -47 30
-62 c29 -57 31 -69 31 -167 0 -97 -2 -110 -30 -164 -38 -75 -114 -152 -179
-182 -93 -42 -94 -42 -161 27 -37 38 -55 63 -47 66 34 13 136 89 168 126 93
108 137 269 112 408 -5 30 -23 87 -40 127 -68 165 -259 292 -438 292 -67 0
-170 -19 -170 -31 0 -5 6 -9 13 -9 38 0 168 -113 216 -189 97 -152 100 -377 7
-536 -15 -25 -30 -45 -34 -45 -10 0 -852 843 -852 853 0 5 20 36 44 70 83 118
142 259 171 409 29 153 17 393 -26 505 -5 13 -9 28 -9 33 0 30 176 39 261 14z"/>
</g>
</svg>
